<?xml version="1.0" encoding="utf-8"?>
<!-- Generator: Adobe Illustrator 19.1.1, SVG Export Plug-In . SVG Version: 6.00 Build 0)  -->
<svg version="1.1" id="Livello_1" xmlns="http://www.w3.org/2000/svg" xmlns:xlink="http://www.w3.org/1999/xlink" x="0px" y="0px"
	 viewBox="0 0 189.7 77.6" style="enable-background:new 0 0 189.7 77.6;" xml:space="preserve">
<style type="text/css">
	.st0{fill:#FFFFFF;}
</style>
<text transform="matrix(1 0 0 1 843 11)" style="stroke:#000000;stroke-width:6;stroke-miterlimit:10; font-family:'JavaneseText'; font-size:109px; letter-spacing:13;">FPW</text>
<g>
	<path class="st0" d="M140,71.8c-2.1,1.9-4.5,3.4-7.1,4.4c-1.9,0.7-3.8,1.2-5.8,1.4h25.7c-2-0.2-3.9-0.6-5.8-1.4
		C144.4,75.2,142.1,73.8,140,71.8z"/>
	<path class="st0" d="M130.1,60.3c0.7-0.7,1.2-1.5,1.6-2.4c0.4-0.9,0.6-1.9,0.6-3V0.6c0-0.2-0.1-0.4-0.1-0.6h-15.1
		c0,0.2,0,0.4,0,0.6v54.2c0,1.1,0.2,2.1,0.6,3c0.4,0.9,0.9,1.8,1.6,2.4c0.7,0.7,1.5,1.2,2.4,1.6c0.9,0.4,1.9,0.6,3,0.6
		s2.1-0.2,3-0.6C128.6,61.5,129.4,61,130.1,60.3z"/>
	<path class="st0" d="M162.2,57.8c0.4-0.9,0.6-1.9,0.6-3V0.3h0.1c0-0.1,0-0.2,0-0.3h-15.3c0,0.1,0,0.2,0,0.3h0v54.5
		c0,1.1,0.2,2.1,0.6,3c0.4,0.9,0.9,1.8,1.6,2.4c0.7,0.7,1.5,1.2,2.4,1.6c0.9,0.4,1.9,0.6,3,0.6s2.1-0.2,3-0.6
		c0.9-0.4,1.7-0.9,2.4-1.6C161.3,59.6,161.8,58.8,162.2,57.8z"/>
	<path class="st0" d="M107.2,70.8c-4.8-4.7-5.3-12.1-5.3-14.5V0.6H65.7c0,0.1,0.1,0.2,0.1,0.3c2,0.1,4,0.4,5.9,0.9H36.2V0.7H0v76.3
		h15.3V46.6h20.9v0h16.6v0.1H64c0.7,0,1.3-0.1,1.9-0.1h24.5c-0.3,0.5-0.6,1-0.9,1.5H36v0.3h53.4c-0.3,0.5-0.7,1-1.1,1.4H36V50h52.2
		c-0.4,0.5-0.7,0.9-1.1,1.4H36v0.3h50.8c-0.4,0.5-0.8,0.9-1.2,1.3c0,0-0.1,0.1-0.1,0.1H36v0.3h49.2c-0.5,0.5-1.1,1-1.7,1.5H36v0.3
		h47.3c-0.6,0.5-1.3,1-1.9,1.4H36v0.3h45c-0.8,0.5-1.5,1-2.4,1.4H36v0.3h42.1c-0.7,0.4-1.4,0.7-2.2,1.1c-0.3,0.1-0.6,0.3-0.9,0.4H36
		v0.3h38.3c-2,0.7-4.1,1.2-6.2,1.5H36v0.3h28.9c-0.3,0-0.6,0-0.9,0H51.8v1.4H36v0.3h15.8V65H36v0.3h15.8v1.4H36v0.3h15.8v1.5H36v0.3
		h15.8v1.4H36v0.3h15.8v1.4H36v0.3h15.8v1.4H36v0.3h15.8v1.5H36v0.3h15.8v-0.1c0.1,0.3,0,1.8,0,1.8l49.7,0.2v0h20.5
		c-2.2-0.2-4.4-0.8-6.4-1.7C112.7,74.5,109.3,72.9,107.2,70.8z M36.2,14v-1.5h51.8c0.4,0.5,0.8,1,1.1,1.5H36.2z M89.2,14.2
		c0.3,0.5,0.6,1,0.9,1.4h-54v-1.4H89.2z M36.2,12.2v-1.4h50.3c0.4,0.5,0.8,0.9,1.2,1.4H36.2z M36.2,10.5V8.9h48.4
		c0.3,0.3,0.7,0.6,1,0.9c0.2,0.2,0.5,0.5,0.7,0.7H36.2z M79.4,5c0.1,0.1,0.2,0.1,0.3,0.2H36.2V3.7h40.8C77.8,4.1,78.6,4.6,79.4,5z
		 M80,5.4c0.8,0.5,1.5,1,2.2,1.5H36.2V5.4H80z M82.6,7.2c0.6,0.5,1.2,0.9,1.7,1.4H36.2V7.2H82.6z M72.5,2.1c1.3,0.4,2.6,0.9,3.9,1.4
		H36.2V2.1H72.5z M15.3,16h20.9v-0.1h54.1c0,0,0,0.1,0.1,0.1c0.3,0.4,0.5,0.9,0.7,1.4H70c0,0-0.1,0-0.1,0c-1.8-0.8-3.8-1.2-5.9-1.2
		H52.8v1.2H36v0.3h16.8v1.4H36v0.3h16.8v1.5H36v0.3h16.8v1.4H36v0.3h16.8v1.4H36v0.3h16.8v1.4H36v0.3h16.8v1.5H36v0.3h16.8v1.4H36
		v0.3h16.8v1.4H36v0.3h16.8v1.4H36.2v-1.3H15.3V16z M91.5,44.6H71.6c0.7-0.4,1.4-0.9,2.1-1.4h18.4c0,0,0,0,0,0.1
		C91.9,43.7,91.7,44.1,91.5,44.6z M36.2,32.9h16.6v1.5H36.2V32.9z M78.1,25.5c-0.2-0.4-0.3-0.7-0.5-1.1h16.2c0.1,0.5,0.2,1,0.3,1.4
		H78.2C78.1,25.7,78.1,25.6,78.1,25.5z M94.2,36.1H78.5c0.2-0.5,0.3-1,0.4-1.4h15.5C94.3,35.1,94.3,35.6,94.2,36.1z M94.1,26.1
		c0.1,0.5,0.2,1,0.2,1.5H78.8c-0.1-0.5-0.3-1-0.5-1.5H94.1z M94.3,27.8c0.1,0.5,0.1,1,0.1,1.4H79.1c-0.1-0.5-0.2-1-0.3-1.4H94.3z
		 M94.5,29.5c0,0.5,0,1,0,1.4H79.2c0-0.5,0-1-0.1-1.4H94.5z M94.5,31.2c0,0.1,0,0.1,0,0.2c0,0.4,0,0.8,0,1.2H79.2
		c0-0.4,0.1-0.8,0.1-1.2c0-0.1,0-0.1,0-0.2H94.5z M94.5,32.9c0,0.5-0.1,1-0.1,1.5H79c0.1-0.5,0.2-1,0.2-1.5H94.5z M36.2,34.6h16.6
		v1.4H36.2V34.6z M36.2,36.3h16.6v1.4H36.2V36.3z M36.2,38h16.6v1.4H36.2V38z M36.2,39.7h16.6v1.5H36.2V39.7z M36.2,41.5h16.6v1.4
		H36.2V41.5z M36.2,43.2h16.6v1.4H36.2V43.2z M74,42.9c0.3-0.2,0.5-0.5,0.8-0.7c0.2-0.2,0.4-0.5,0.7-0.7h17.4
		c-0.2,0.5-0.4,1-0.6,1.4H74z M75.7,41.2c0.4-0.5,0.8-1,1.1-1.5h16.6c-0.1,0.5-0.3,1-0.5,1.5H75.7z M76.9,39.5
		c0.3-0.5,0.6-0.9,0.8-1.4h16.1c-0.1,0.5-0.2,1-0.4,1.4H76.9z M77.8,37.8c0.1-0.2,0.2-0.3,0.2-0.4c0.1-0.3,0.3-0.7,0.4-1h15.7
		c-0.1,0.5-0.2,1-0.3,1.4H77.8z M93.4,23.3c0.1,0.3,0.1,0.6,0.2,0.8H77.4c-0.3-0.5-0.5-0.9-0.8-1.4h16.7
		C93.3,22.9,93.4,23.1,93.4,23.3z M76.4,22.5c-0.4-0.5-0.8-1-1.2-1.4h17.5c0.2,0.5,0.3,1,0.5,1.4H76.4z M75,20.8
		c-0.1-0.1-0.1-0.1-0.2-0.2c-0.5-0.5-1-0.9-1.5-1.3H92c0.2,0.5,0.4,1,0.6,1.5H75z M73,19.1c-0.8-0.5-1.6-1-2.4-1.4h20.7
		c0.2,0.5,0.5,1,0.7,1.4H73z M36.2,46.3v-1.4h16.6v1.4H36.2z M67.4,46.3c0.9-0.2,1.7-0.5,2.5-0.8c0.4-0.2,0.9-0.4,1.3-0.6h20.1
		c-0.2,0.5-0.5,1-0.7,1.4H67.4z"/>
	<path class="st0" d="M178.8,0.1v58.7c-0.3,1.7-0.8,3.4-1.4,4.9c-1.2,2.8-2.8,5.2-4.9,7.3c-2.1,2.1-4.5,3.7-7.3,4.9
		c-2,0.9-4.2,1.4-6.4,1.7h20.2h10.8V0.1H178.8z"/>
	<polygon class="st0" points="36,76.9 36,77.2 51.8,77.2 51.8,77.2 51.8,76.9 	"/>
</g>
</svg>
