<?xml version="1.0" encoding="utf-8"?>
<!-- Generator: Adobe Illustrator 19.1.1, SVG Export Plug-In . SVG Version: 6.00 Build 0)  -->
<svg version="1.1" xmlns="http://www.w3.org/2000/svg" xmlns:xlink="http://www.w3.org/1999/xlink" x="0px" y="0px"
	 viewBox="0 0 1417.3 1417.3" style="enable-background:new 0 0 1417.3 1417.3;" xml:space="preserve">
<style type="text/css">
	.st0{fill:#EB5B57;}
	.st1{fill:#1E6962;}
	.st2{fill:#152021;}
	.st3{fill:#838E66;}
	.st4{fill:#FFFFFF;}
	.st5{fill:none;stroke:#FFFFFF;stroke-width:4;stroke-miterlimit:10;}
</style>
<g id="sfondo">
	<rect x="200.5" y="708.7" class="st0" width="508.1" height="508.1"/>
	<rect x="200.5" y="200.5" class="st1" width="508.1" height="508.1"/>
	<rect x="708.7" y="708.7" class="st2" width="508.1" height="508.1"/>
	<rect x="708.7" y="200.5" class="st3" width="508.1" height="508.1"/>
</g>
<g id="Livello_1">
	<g>
		<path class="st4" d="M511,499.6c-2.6,2.4-5.6,4.2-8.9,5.5c-2.3,0.9-4.8,1.4-7.2,1.7h32.1c-2.5-0.3-4.9-0.8-7.2-1.7
			C516.6,503.8,513.6,502,511,499.6z"/>
		<path class="st4" d="M498.7,485.1c0.9-0.9,1.5-1.9,2-3.1c0.5-1.2,0.7-2.4,0.7-3.8v-67.9c0-0.2-0.1-0.5-0.1-0.7h-18.9
			c0,0.3,0,0.5,0,0.8v67.8c0,1.3,0.2,2.6,0.7,3.8c0.5,1.2,1.2,2.2,2,3.1c0.9,0.9,1.9,1.5,3,2c1.2,0.5,2.4,0.7,3.7,0.7
			s2.6-0.2,3.7-0.7C496.8,486.7,497.8,486,498.7,485.1z"/>
		<path class="st4" d="M538.9,482.1c0.5-1.2,0.8-2.4,0.8-3.8v-68.2h0.1c0-0.1,0-0.3,0-0.4h-19.2c0,0.1,0,0.3,0,0.4h0v68.2
			c0,1.3,0.2,2.6,0.7,3.8c0.5,1.2,1.2,2.2,2,3.1c0.9,0.9,1.9,1.5,3,2c1.2,0.5,2.4,0.7,3.7,0.7c1.3,0,2.6-0.2,3.7-0.7
			c1.2-0.5,2.2-1.2,3-2C537.7,484.3,538.4,483.3,538.9,482.1z"/>
		<path class="st4" d="M470,498.3c-6-5.9-6.6-15.1-6.6-18.2v-69.6h-45.3c0,0.1,0.1,0.2,0.1,0.3c2.5,0.1,5,0.5,7.3,1.1h-44.4v-1.3
			h-45.2v95.5H355V468h26.1v0h20.8v0.2H416c0.8,0,1.6-0.1,2.4-0.2h30.6c-0.4,0.6-0.7,1.3-1.1,1.9h-67v0.3h66.8
			c-0.4,0.6-0.9,1.2-1.3,1.8h-65.5v0.3h65.3c-0.5,0.6-0.9,1.2-1.4,1.7h-63.9v0.3h63.6c-0.5,0.6-1,1.1-1.5,1.7c0,0-0.1,0.1-0.1,0.1
			h-61.9v0.3h61.6c-0.7,0.6-1.4,1.3-2.1,1.9h-59.5v0.3H440c-0.8,0.6-1.6,1.2-2.4,1.8h-56.7v0.3h56.3c-1,0.6-1.9,1.2-3,1.8h-53.3v0.3
			h52.7c-0.9,0.5-1.8,0.9-2.8,1.3c-0.4,0.2-0.8,0.3-1.2,0.5h-48.7v0.3h47.9c-2.5,0.9-5.1,1.5-7.7,1.9h-40.2v0.3h36.2
			c-0.4,0-0.7,0-1.1,0h-15.4v1.8h-19.7v0.3h19.7v1.8h-19.7v0.3h19.7v1.8h-19.7v0.3h19.7v1.9h-19.7v0.3h19.7v1.8h-19.7v0.3h19.7v1.8
			h-19.7v0.3h19.7v1.8h-19.7v0.3h19.7v1.9h-19.7v0.3h19.7v-0.1c0.2,0.4,0,2.2,0,2.2l62.1,0.2v0h25.6c-2.8-0.3-5.5-1-8.1-2.1
			C476.9,503,472.6,500.9,470,498.3z M381.1,427.2v-1.9h64.8c0.5,0.6,0.9,1.2,1.4,1.9H381.1z M447.5,427.6c0.4,0.6,0.8,1.2,1.1,1.8
			h-67.5v-1.8H447.5z M381.1,425.1v-1.8h63c0.5,0.6,1.1,1.2,1.6,1.8H381.1z M381.1,422.9v-2.1h60.6c0.4,0.4,0.8,0.8,1.2,1.2
			c0.3,0.3,0.6,0.6,0.9,0.9H381.1z M435.2,416c0.1,0.1,0.2,0.1,0.3,0.2h-54.4v-1.8h51C433.2,414.9,434.2,415.4,435.2,416z
			 M436,416.5c0.9,0.6,1.9,1.2,2.7,1.9h-57.6v-1.9H436z M439.2,418.7c0.7,0.6,1.5,1.2,2.2,1.8h-60.2v-1.8H439.2z M426.6,412.3
			c1.7,0.5,3.3,1.1,4.9,1.8h-50.3v-1.8H426.6z M355,429.8h26.1v-0.1h67.7c0,0,0,0.1,0.1,0.1c0.3,0.6,0.6,1.1,0.9,1.7h-26.3
			c0,0-0.1,0-0.1-0.1c-2.3-1-4.8-1.5-7.4-1.5h-14.1v1.6h-21v0.3h21v1.8h-21v0.3h21v1.9h-21v0.3h21v1.8h-21v0.3h21v1.7h-21v0.3h21
			v1.8h-21v0.3h21v1.9h-21v0.3h21v1.8h-21v0.3h21v1.8h-21v0.3h21v1.8h-20.8v-1.7H355V429.8z M450.4,465.5h-24.8
			c0.9-0.5,1.8-1.1,2.6-1.8h23.1c0,0,0,0.1,0,0.1C450.9,464.4,450.6,465,450.4,465.5z M381.1,450.9h20.8v1.9h-20.8V450.9z
			 M433.6,441.6c-0.2-0.5-0.4-0.9-0.7-1.3h20.2c0.1,0.6,0.3,1.2,0.4,1.8h-19.8C433.7,441.9,433.6,441.7,433.6,441.6z M453.7,454.9
			h-19.6c0.2-0.6,0.4-1.2,0.5-1.8H454C453.9,453.7,453.8,454.3,453.7,454.9z M453.6,442.4c0.1,0.6,0.2,1.2,0.3,1.9h-19.4
			c-0.2-0.6-0.4-1.3-0.6-1.9H453.6z M453.9,444.6c0.1,0.6,0.1,1.2,0.2,1.8h-19.2c-0.1-0.6-0.2-1.2-0.3-1.8H453.9z M454.1,446.7
			c0,0.6,0.1,1.2,0.1,1.8H435c0-0.6-0.1-1.2-0.1-1.8H454.1z M454.2,448.8c0,0.1,0,0.2,0,0.2c0,0.5,0,1,0,1.6H435
			c0-0.5,0.1-1,0.1-1.6c0-0.1,0-0.2,0-0.2H454.2z M454.1,450.9c0,0.6-0.1,1.3-0.1,1.9h-19.3c0.1-0.6,0.2-1.2,0.3-1.9H454.1z
			 M381.1,453.1h20.8v1.8h-20.8V453.1z M381.1,455.2h20.8v1.8h-20.8V455.2z M381.1,457.3h20.8v1.8h-20.8V457.3z M381.1,459.4h20.8
			v1.9h-20.8V459.4z M381.1,461.6h20.8v1.8h-20.8V461.6z M381.1,463.7h20.8v1.8h-20.8V463.7z M428.5,463.4c0.3-0.3,0.7-0.6,1-0.9
			c0.3-0.3,0.6-0.6,0.8-0.9H452c-0.2,0.6-0.4,1.2-0.7,1.8H428.5z M430.6,461.3c0.5-0.6,1-1.2,1.4-1.9h20.8c-0.2,0.6-0.4,1.3-0.6,1.9
			H430.6z M432.1,459.1c0.4-0.6,0.7-1.2,1-1.8h20.1c-0.1,0.6-0.3,1.2-0.4,1.8H432.1z M433.3,457c0.1-0.2,0.2-0.4,0.3-0.6
			c0.2-0.4,0.3-0.8,0.5-1.2h19.7c-0.1,0.6-0.2,1.2-0.3,1.8H433.3z M452.8,438.9c0.1,0.3,0.2,0.7,0.3,1h-20.3
			c-0.3-0.6-0.7-1.2-1.1-1.7h20.9C452.7,438.4,452.7,438.7,452.8,438.9z M431.5,437.9c-0.5-0.6-0.9-1.2-1.5-1.8h21.9
			c0.2,0.6,0.4,1.2,0.6,1.8H431.5z M429.7,435.8c-0.1-0.1-0.2-0.2-0.2-0.3c-0.6-0.6-1.2-1.1-1.9-1.6H451c0.3,0.6,0.5,1.2,0.7,1.9
			H429.7z M427.2,433.6c-0.9-0.7-1.9-1.3-3-1.8H450c0.3,0.6,0.6,1.2,0.8,1.8H427.2z M381.1,467.7v-1.8h20.8v1.8H381.1z M420.2,467.7
			c1.1-0.2,2.2-0.6,3.2-1c0.6-0.2,1.1-0.5,1.6-0.8h25.2c-0.3,0.6-0.6,1.2-0.9,1.8H420.2z"/>
		<path class="st4" d="M559.6,409.9v73.4c-0.4,2.1-1,4.2-1.8,6.2c-1.5,3.5-3.5,6.5-6.1,9.1c-2.6,2.6-5.6,4.6-9.1,6.1
			c-2.6,1.1-5.2,1.8-8.1,2.1h25.2h8.5v-96.9H559.6z"/>
		<polygon class="st4" points="380.9,506 380.9,506.3 400.7,506.3 400.7,506.3 400.7,506 		"/>
	</g>
	<g>
		<path class="st4" d="M1019.2,499.6c-2.6,2.4-5.6,4.2-8.9,5.5c-2.3,0.9-4.8,1.4-7.2,1.7h32.1c-2.5-0.3-4.9-0.8-7.2-1.7
			C1024.7,503.8,1021.8,502,1019.2,499.6z"/>
		<path class="st4" d="M1006.8,485.1c0.9-0.9,1.5-1.9,2-3.1c0.5-1.2,0.7-2.4,0.7-3.8v-67.9c0-0.2-0.1-0.5-0.1-0.7h-18.9
			c0,0.3,0,0.5,0,0.8v67.8c0,1.3,0.2,2.6,0.7,3.8c0.5,1.2,1.2,2.2,2,3.1c0.9,0.9,1.9,1.5,3,2c1.2,0.5,2.4,0.7,3.7,0.7
			c1.3,0,2.6-0.2,3.7-0.7C1004.9,486.7,1005.9,486,1006.8,485.1z"/>
		<path class="st4" d="M1047,482.1c0.5-1.2,0.8-2.4,0.8-3.8v-68.2h0.1c0-0.1,0-0.3,0-0.4h-19.2c0,0.1,0,0.3,0,0.4h0v68.2
			c0,1.3,0.2,2.6,0.7,3.8c0.5,1.2,1.2,2.2,2,3.1c0.9,0.9,1.9,1.5,3,2c1.2,0.5,2.4,0.7,3.7,0.7c1.3,0,2.6-0.2,3.7-0.7
			c1.2-0.5,2.2-1.2,3-2C1045.8,484.3,1046.5,483.3,1047,482.1z"/>
		<path class="st4" d="M978.1,498.3c-6-5.9-6.6-15.1-6.6-18.2v-69.6h-45.3c0,0.1,0.1,0.2,0.1,0.3c2.5,0.1,5,0.5,7.3,1.1h-44.4v-1.3
			H844v95.5h19.1V468h26.1v0H910v0.2h14.1c0.8,0,1.6-0.1,2.4-0.2h30.6c-0.4,0.6-0.7,1.3-1.1,1.9h-67v0.3h66.8
			c-0.4,0.6-0.9,1.2-1.3,1.8h-65.5v0.3h65.3c-0.5,0.6-0.9,1.2-1.4,1.7h-63.9v0.3h63.6c-0.5,0.6-1,1.1-1.5,1.7c0,0-0.1,0.1-0.1,0.1
			h-61.9v0.3h61.6c-0.7,0.6-1.4,1.3-2.1,1.9h-59.5v0.3h59.1c-0.8,0.6-1.6,1.2-2.4,1.8h-56.7v0.3h56.3c-1,0.6-1.9,1.2-3,1.8h-53.3
			v0.3h52.7c-0.9,0.5-1.8,0.9-2.8,1.3c-0.4,0.2-0.8,0.3-1.2,0.5h-48.7v0.3H937c-2.5,0.9-5.1,1.5-7.7,1.9h-40.2v0.3h36.2
			c-0.4,0-0.7,0-1.1,0h-15.4v1.8h-19.7v0.3h19.7v1.8h-19.7v0.3h19.7v1.8h-19.7v0.3h19.7v1.9h-19.7v0.3h19.7v1.8h-19.7v0.3h19.7v1.8
			h-19.7v0.3h19.7v1.8h-19.7v0.3h19.7v1.9h-19.7v0.3h19.7v-0.1c0.2,0.4,0,2.2,0,2.2l62.1,0.2v0h25.6c-2.8-0.3-5.5-1-8.1-2.1
			C985,503,980.8,500.9,978.1,498.3z M889.3,427.2v-1.9h64.8c0.5,0.6,0.9,1.2,1.4,1.9H889.3z M955.7,427.6c0.4,0.6,0.8,1.2,1.1,1.8
			h-67.5v-1.8H955.7z M889.3,425.1v-1.8h63c0.5,0.6,1.1,1.2,1.6,1.8H889.3z M889.3,422.9v-2.1h60.6c0.4,0.4,0.8,0.8,1.2,1.2
			c0.3,0.3,0.6,0.6,0.9,0.9H889.3z M943.4,416c0.1,0.1,0.2,0.1,0.3,0.2h-54.4v-1.8h51C941.3,414.9,942.4,415.4,943.4,416z
			 M944.2,416.5c0.9,0.6,1.9,1.2,2.7,1.9h-57.6v-1.9H944.2z M947.3,418.7c0.7,0.6,1.5,1.2,2.2,1.8h-60.2v-1.8H947.3z M934.8,412.3
			c1.7,0.5,3.3,1.1,4.9,1.8h-50.3v-1.8H934.8z M863.1,429.8h26.1v-0.1H957c0,0,0,0.1,0.1,0.1c0.3,0.6,0.6,1.1,0.9,1.7h-26.3
			c0,0-0.1,0-0.1-0.1c-2.3-1-4.8-1.5-7.4-1.5H910v1.6h-21v0.3h21v1.8h-21v0.3h21v1.9h-21v0.3h21v1.8h-21v0.3h21v1.7h-21v0.3h21v1.8
			h-21v0.3h21v1.9h-21v0.3h21v1.8h-21v0.3h21v1.8h-21v0.3h21v1.8h-20.8v-1.7h-26.1V429.8z M958.5,465.5h-24.8
			c0.9-0.5,1.8-1.1,2.6-1.8h23.1c0,0,0,0.1,0,0.1C959.1,464.4,958.8,465,958.5,465.5z M889.3,450.9H910v1.9h-20.8V450.9z
			 M941.7,441.6c-0.2-0.5-0.4-0.9-0.7-1.3h20.2c0.1,0.6,0.3,1.2,0.4,1.8h-19.8C941.8,441.9,941.8,441.7,941.7,441.6z M961.9,454.9
			h-19.6c0.2-0.6,0.4-1.2,0.5-1.8h19.3C962,453.7,962,454.3,961.9,454.9z M961.7,442.4c0.1,0.6,0.2,1.2,0.3,1.9h-19.4
			c-0.2-0.6-0.4-1.3-0.6-1.9H961.7z M962,444.6c0.1,0.6,0.1,1.2,0.2,1.8H943c-0.1-0.6-0.2-1.2-0.3-1.8H962z M962.2,446.7
			c0,0.6,0.1,1.2,0.1,1.8h-19.1c0-0.6-0.1-1.2-0.1-1.8H962.2z M962.3,448.8c0,0.1,0,0.2,0,0.2c0,0.5,0,1,0,1.6h-19.1
			c0-0.5,0.1-1,0.1-1.6c0-0.1,0-0.2,0-0.2H962.3z M962.3,450.9c0,0.6-0.1,1.3-0.1,1.9h-19.3c0.1-0.6,0.2-1.2,0.3-1.9H962.3z
			 M889.3,453.1H910v1.8h-20.8V453.1z M889.3,455.2H910v1.8h-20.8V455.2z M889.3,457.3H910v1.8h-20.8V457.3z M889.3,459.4H910v1.9
			h-20.8V459.4z M889.3,461.6H910v1.8h-20.8V461.6z M889.3,463.7H910v1.8h-20.8V463.7z M936.6,463.4c0.3-0.3,0.7-0.6,1-0.9
			c0.3-0.3,0.6-0.6,0.8-0.9h21.7c-0.2,0.6-0.4,1.2-0.7,1.8H936.6z M938.7,461.3c0.5-0.6,1-1.2,1.4-1.9h20.8
			c-0.2,0.6-0.4,1.3-0.6,1.9H938.7z M940.3,459.1c0.4-0.6,0.7-1.2,1-1.8h20.1c-0.1,0.6-0.3,1.2-0.4,1.8H940.3z M941.4,457
			c0.1-0.2,0.2-0.4,0.3-0.6c0.2-0.4,0.3-0.8,0.5-1.2h19.7c-0.1,0.6-0.2,1.2-0.3,1.8H941.4z M960.9,438.9c0.1,0.3,0.2,0.7,0.3,1
			h-20.3c-0.3-0.6-0.7-1.2-1.1-1.7h20.9C960.8,438.4,960.9,438.7,960.9,438.9z M939.6,437.9c-0.5-0.6-0.9-1.2-1.5-1.8H960
			c0.2,0.6,0.4,1.2,0.6,1.8H939.6z M937.8,435.8c-0.1-0.1-0.2-0.2-0.2-0.3c-0.6-0.6-1.2-1.1-1.9-1.6h23.4c0.3,0.6,0.5,1.2,0.7,1.9
			H937.8z M935.3,433.6c-0.9-0.7-1.9-1.3-3-1.8h25.9c0.3,0.6,0.6,1.2,0.8,1.8H935.3z M889.3,467.7v-1.8H910v1.8H889.3z M928.4,467.7
			c1.1-0.2,2.2-0.6,3.2-1c0.6-0.2,1.1-0.5,1.6-0.8h25.2c-0.3,0.6-0.6,1.2-0.9,1.8H928.4z"/>
		<path class="st4" d="M1067.8,409.9v73.4c-0.4,2.1-1,4.2-1.8,6.2c-1.5,3.5-3.5,6.5-6.1,9.1c-2.6,2.6-5.6,4.6-9.1,6.1
			c-2.6,1.1-5.2,1.8-8.1,2.1h25.2h8.5v-96.9H1067.8z"/>
		<polygon class="st4" points="889.1,506 889.1,506.3 908.8,506.3 908.8,506.3 908.8,506 		"/>
	</g>
	<g>
		<path class="st4" d="M1019.2,1004.1c-2.6,2.4-5.6,4.2-8.9,5.5c-2.3,0.9-4.8,1.4-7.2,1.7h32.1c-2.5-0.3-4.9-0.8-7.2-1.7
			C1024.7,1008.3,1021.8,1006.5,1019.2,1004.1z"/>
		<path class="st4" d="M1006.8,989.6c0.9-0.9,1.5-1.9,2-3.1c0.5-1.2,0.7-2.4,0.7-3.8v-67.9c0-0.2-0.1-0.5-0.1-0.7h-18.9
			c0,0.3,0,0.5,0,0.8v67.8c0,1.3,0.2,2.6,0.7,3.8c0.5,1.2,1.2,2.2,2,3.1c0.9,0.9,1.9,1.5,3,2c1.2,0.5,2.4,0.7,3.7,0.7
			c1.3,0,2.6-0.2,3.7-0.7C1004.9,991.2,1005.9,990.5,1006.8,989.6z"/>
		<path class="st4" d="M1047,986.5c0.5-1.2,0.8-2.4,0.8-3.8v-68.2h0.1c0-0.1,0-0.3,0-0.4h-19.2c0,0.1,0,0.3,0,0.4h0v68.2
			c0,1.3,0.2,2.6,0.7,3.8c0.5,1.2,1.2,2.2,2,3.1c0.9,0.9,1.9,1.5,3,2c1.2,0.5,2.4,0.7,3.7,0.7c1.3,0,2.6-0.2,3.7-0.7
			c1.2-0.5,2.2-1.2,3-2C1045.8,988.7,1046.5,987.7,1047,986.5z"/>
		<path class="st4" d="M978.1,1002.8c-6-5.9-6.6-15.1-6.6-18.2V915h-45.3c0,0.1,0.1,0.2,0.1,0.3c2.5,0.1,5,0.5,7.3,1.1h-44.4v-1.3
			H844v95.5h19.1v-38.2h26.1v0H910v0.2h14.1c0.8,0,1.6-0.1,2.4-0.2h30.6c-0.4,0.6-0.7,1.3-1.1,1.9h-67v0.3h66.8
			c-0.4,0.6-0.9,1.2-1.3,1.8h-65.5v0.3h65.3c-0.5,0.6-0.9,1.2-1.4,1.7h-63.9v0.3h63.6c-0.5,0.6-1,1.1-1.5,1.7c0,0-0.1,0.1-0.1,0.1
			h-61.9v0.3h61.6c-0.7,0.6-1.4,1.3-2.1,1.9h-59.5v0.3h59.1c-0.8,0.6-1.6,1.2-2.4,1.8h-56.7v0.3h56.3c-1,0.6-1.9,1.2-3,1.8h-53.3
			v0.3h52.7c-0.9,0.5-1.8,0.9-2.8,1.3c-0.4,0.2-0.8,0.3-1.2,0.5h-48.7v0.3H937c-2.5,0.9-5.1,1.5-7.7,1.9h-40.2v0.3h36.2
			c-0.4,0-0.7,0-1.1,0h-15.4v1.8h-19.7v0.3h19.7v1.8h-19.7v0.3h19.7v1.8h-19.7v0.3h19.7v1.9h-19.7v0.3h19.7v1.8h-19.7v0.3h19.7v1.8
			h-19.7v0.3h19.7v1.8h-19.7v0.3h19.7v1.9h-19.7v0.3h19.7v-0.1c0.2,0.4,0,2.2,0,2.2l62.1,0.2v0h25.6c-2.8-0.3-5.5-1-8.1-2.1
			C985,1007.5,980.8,1005.4,978.1,1002.8z M889.3,931.7v-1.9h64.8c0.5,0.6,0.9,1.2,1.4,1.9H889.3z M955.7,932
			c0.4,0.6,0.8,1.2,1.1,1.8h-67.5V932H955.7z M889.3,929.5v-1.8h63c0.5,0.6,1.1,1.2,1.6,1.8H889.3z M889.3,927.4v-2.1h60.6
			c0.4,0.4,0.8,0.8,1.2,1.2c0.3,0.3,0.6,0.6,0.9,0.9H889.3z M943.4,920.5c0.1,0.1,0.2,0.1,0.3,0.2h-54.4v-1.8h51
			C941.3,919.4,942.4,919.9,943.4,920.5z M944.2,921c0.9,0.6,1.9,1.2,2.7,1.9h-57.6V921H944.2z M947.3,923.2
			c0.7,0.6,1.5,1.2,2.2,1.8h-60.2v-1.8H947.3z M934.8,916.8c1.7,0.5,3.3,1.1,4.9,1.8h-50.3v-1.8H934.8z M863.1,934.2h26.1v-0.1H957
			c0,0,0,0.1,0.1,0.1c0.3,0.6,0.6,1.1,0.9,1.7h-26.3c0,0-0.1,0-0.1-0.1c-2.3-1-4.8-1.5-7.4-1.5H910v1.6h-21v0.3h21v1.8h-21v0.3h21
			v1.9h-21v0.3h21v1.8h-21v0.3h21v1.7h-21v0.3h21v1.8h-21v0.3h21v1.9h-21v0.3h21v1.8h-21v0.3h21v1.8h-21v0.3h21v1.8h-20.8v-1.7
			h-26.1V934.2z M958.5,970h-24.8c0.9-0.5,1.8-1.1,2.6-1.8h23.1c0,0,0,0.1,0,0.1C959.1,968.9,958.8,969.4,958.5,970z M889.3,955.4
			H910v1.9h-20.8V955.4z M941.7,946.1c-0.2-0.5-0.4-0.9-0.7-1.3h20.2c0.1,0.6,0.3,1.2,0.4,1.8h-19.8
			C941.8,946.4,941.8,946.2,941.7,946.1z M961.9,959.4h-19.6c0.2-0.6,0.4-1.2,0.5-1.8h19.3C962,958.2,962,958.8,961.9,959.4z
			 M961.7,946.8c0.1,0.6,0.2,1.2,0.3,1.9h-19.4c-0.2-0.6-0.4-1.3-0.6-1.9H961.7z M962,949c0.1,0.6,0.1,1.2,0.2,1.8H943
			c-0.1-0.6-0.2-1.2-0.3-1.8H962z M962.2,951.1c0,0.6,0.1,1.2,0.1,1.8h-19.1c0-0.6-0.1-1.2-0.1-1.8H962.2z M962.3,953.2
			c0,0.1,0,0.2,0,0.2c0,0.5,0,1,0,1.6h-19.1c0-0.5,0.1-1,0.1-1.6c0-0.1,0-0.2,0-0.2H962.3z M962.3,955.4c0,0.6-0.1,1.3-0.1,1.9
			h-19.3c0.1-0.6,0.2-1.2,0.3-1.9H962.3z M889.3,957.5H910v1.8h-20.8V957.5z M889.3,959.7H910v1.8h-20.8V959.7z M889.3,961.8H910
			v1.8h-20.8V961.8z M889.3,963.9H910v1.9h-20.8V963.9z M889.3,966.1H910v1.8h-20.8V966.1z M889.3,968.2H910v1.8h-20.8V968.2z
			 M936.6,967.9c0.3-0.3,0.7-0.6,1-0.9c0.3-0.3,0.6-0.6,0.8-0.9h21.7c-0.2,0.6-0.4,1.2-0.7,1.8H936.6z M938.7,965.8
			c0.5-0.6,1-1.2,1.4-1.9h20.8c-0.2,0.6-0.4,1.3-0.6,1.9H938.7z M940.3,963.6c0.4-0.6,0.7-1.2,1-1.8h20.1c-0.1,0.6-0.3,1.2-0.4,1.8
			H940.3z M941.4,961.5c0.1-0.2,0.2-0.4,0.3-0.6c0.2-0.4,0.3-0.8,0.5-1.2h19.7c-0.1,0.6-0.2,1.2-0.3,1.8H941.4z M960.9,943.4
			c0.1,0.3,0.2,0.7,0.3,1h-20.3c-0.3-0.6-0.7-1.2-1.1-1.7h20.9C960.8,942.9,960.9,943.1,960.9,943.4z M939.6,942.4
			c-0.5-0.6-0.9-1.2-1.5-1.8H960c0.2,0.6,0.4,1.2,0.6,1.8H939.6z M937.8,940.2c-0.1-0.1-0.2-0.2-0.2-0.3c-0.6-0.6-1.2-1.1-1.9-1.6
			h23.4c0.3,0.6,0.5,1.2,0.7,1.9H937.8z M935.3,938.1c-0.9-0.7-1.9-1.3-3-1.8h25.9c0.3,0.6,0.6,1.2,0.8,1.8H935.3z M889.3,972.1
			v-1.8H910v1.8H889.3z M928.4,972.1c1.1-0.2,2.2-0.6,3.2-1c0.6-0.2,1.1-0.5,1.6-0.8h25.2c-0.3,0.6-0.6,1.2-0.9,1.8H928.4z"/>
		<path class="st4" d="M1067.8,914.4v73.4c-0.4,2.1-1,4.2-1.8,6.2c-1.5,3.5-3.5,6.5-6.1,9.1c-2.6,2.6-5.6,4.6-9.1,6.1
			c-2.6,1.1-5.2,1.8-8.1,2.1h25.2h8.5v-96.9H1067.8z"/>
		<polygon class="st4" points="889.1,1010.5 889.1,1010.8 908.8,1010.8 908.8,1010.8 908.8,1010.5 		"/>
	</g>
	<g>
		<path class="st4" d="M511,1004.1c-2.6,2.4-5.6,4.2-8.9,5.5c-2.3,0.9-4.8,1.4-7.2,1.7h32.1c-2.5-0.3-4.9-0.8-7.2-1.7
			C516.6,1008.3,513.6,1006.5,511,1004.1z"/>
		<path class="st4" d="M498.7,989.6c0.9-0.9,1.5-1.9,2-3.1c0.5-1.2,0.7-2.4,0.7-3.8v-67.9c0-0.2-0.1-0.5-0.1-0.7h-18.9
			c0,0.3,0,0.5,0,0.8v67.8c0,1.3,0.2,2.6,0.7,3.8c0.5,1.2,1.2,2.2,2,3.1c0.9,0.9,1.9,1.5,3,2c1.2,0.5,2.4,0.7,3.7,0.7
			s2.6-0.2,3.7-0.7C496.8,991.2,497.8,990.5,498.7,989.6z"/>
		<path class="st4" d="M538.9,986.5c0.5-1.2,0.8-2.4,0.8-3.8v-68.2h0.1c0-0.1,0-0.3,0-0.4h-19.2c0,0.1,0,0.3,0,0.4h0v68.2
			c0,1.3,0.2,2.6,0.7,3.8c0.5,1.2,1.2,2.2,2,3.1c0.9,0.9,1.9,1.5,3,2c1.2,0.5,2.4,0.7,3.7,0.7c1.3,0,2.6-0.2,3.7-0.7
			c1.2-0.5,2.2-1.2,3-2C537.7,988.7,538.4,987.7,538.9,986.5z"/>
		<path class="st4" d="M470,1002.8c-6-5.9-6.6-15.1-6.6-18.2V915h-45.3c0,0.1,0.1,0.2,0.1,0.3c2.5,0.1,5,0.5,7.3,1.1h-44.4v-1.3
			h-45.2v95.5H355v-38.2h26.1v0h20.8v0.2H416c0.8,0,1.6-0.1,2.4-0.2h30.6c-0.4,0.6-0.7,1.3-1.1,1.9h-67v0.3h66.8
			c-0.4,0.6-0.9,1.2-1.3,1.8h-65.5v0.3h65.3c-0.5,0.6-0.9,1.2-1.4,1.7h-63.9v0.3h63.6c-0.5,0.6-1,1.1-1.5,1.7c0,0-0.1,0.1-0.1,0.1
			h-61.9v0.3h61.6c-0.7,0.6-1.4,1.3-2.1,1.9h-59.5v0.3H440c-0.8,0.6-1.6,1.2-2.4,1.8h-56.7v0.3h56.3c-1,0.6-1.9,1.2-3,1.8h-53.3v0.3
			h52.7c-0.9,0.5-1.8,0.9-2.8,1.3c-0.4,0.2-0.8,0.3-1.2,0.5h-48.7v0.3h47.9c-2.5,0.9-5.1,1.5-7.7,1.9h-40.2v0.3h36.2
			c-0.4,0-0.7,0-1.1,0h-15.4v1.8h-19.7v0.3h19.7v1.8h-19.7v0.3h19.7v1.8h-19.7v0.3h19.7v1.9h-19.7v0.3h19.7v1.8h-19.7v0.3h19.7v1.8
			h-19.7v0.3h19.7v1.8h-19.7v0.3h19.7v1.9h-19.7v0.3h19.7v-0.1c0.2,0.4,0,2.2,0,2.2l62.1,0.2v0h25.6c-2.8-0.3-5.5-1-8.1-2.1
			C476.9,1007.5,472.6,1005.4,470,1002.8z M381.1,931.7v-1.9h64.8c0.5,0.6,0.9,1.2,1.4,1.9H381.1z M447.5,932
			c0.4,0.6,0.8,1.2,1.1,1.8h-67.5V932H447.5z M381.1,929.5v-1.8h63c0.5,0.6,1.1,1.2,1.6,1.8H381.1z M381.1,927.4v-2.1h60.6
			c0.4,0.4,0.8,0.8,1.2,1.2c0.3,0.3,0.6,0.6,0.9,0.9H381.1z M435.2,920.5c0.1,0.1,0.2,0.1,0.3,0.2h-54.4v-1.8h51
			C433.2,919.4,434.2,919.9,435.2,920.5z M436,921c0.9,0.6,1.9,1.2,2.7,1.9h-57.6V921H436z M439.2,923.2c0.7,0.6,1.5,1.2,2.2,1.8
			h-60.2v-1.8H439.2z M426.6,916.8c1.7,0.5,3.3,1.1,4.9,1.8h-50.3v-1.8H426.6z M355,934.2h26.1v-0.1h67.7c0,0,0,0.1,0.1,0.1
			c0.3,0.6,0.6,1.1,0.9,1.7h-26.3c0,0-0.1,0-0.1-0.1c-2.3-1-4.8-1.5-7.4-1.5h-14.1v1.6h-21v0.3h21v1.8h-21v0.3h21v1.9h-21v0.3h21
			v1.8h-21v0.3h21v1.7h-21v0.3h21v1.8h-21v0.3h21v1.9h-21v0.3h21v1.8h-21v0.3h21v1.8h-21v0.3h21v1.8h-20.8v-1.7H355V934.2z
			 M450.4,970h-24.8c0.9-0.5,1.8-1.1,2.6-1.8h23.1c0,0,0,0.1,0,0.1C450.9,968.9,450.6,969.4,450.4,970z M381.1,955.4h20.8v1.9h-20.8
			V955.4z M433.6,946.1c-0.2-0.5-0.4-0.9-0.7-1.3h20.2c0.1,0.6,0.3,1.2,0.4,1.8h-19.8C433.7,946.4,433.6,946.2,433.6,946.1z
			 M453.7,959.4h-19.6c0.2-0.6,0.4-1.2,0.5-1.8H454C453.9,958.2,453.8,958.8,453.7,959.4z M453.6,946.8c0.1,0.6,0.2,1.2,0.3,1.9
			h-19.4c-0.2-0.6-0.4-1.3-0.6-1.9H453.6z M453.9,949c0.1,0.6,0.1,1.2,0.2,1.8h-19.2c-0.1-0.6-0.2-1.2-0.3-1.8H453.9z M454.1,951.1
			c0,0.6,0.1,1.2,0.1,1.8H435c0-0.6-0.1-1.2-0.1-1.8H454.1z M454.2,953.2c0,0.1,0,0.2,0,0.2c0,0.5,0,1,0,1.6H435
			c0-0.5,0.1-1,0.1-1.6c0-0.1,0-0.2,0-0.2H454.2z M454.1,955.4c0,0.6-0.1,1.3-0.1,1.9h-19.3c0.1-0.6,0.2-1.2,0.3-1.9H454.1z
			 M381.1,957.5h20.8v1.8h-20.8V957.5z M381.1,959.7h20.8v1.8h-20.8V959.7z M381.1,961.8h20.8v1.8h-20.8V961.8z M381.1,963.9h20.8
			v1.9h-20.8V963.9z M381.1,966.1h20.8v1.8h-20.8V966.1z M381.1,968.2h20.8v1.8h-20.8V968.2z M428.5,967.9c0.3-0.3,0.7-0.6,1-0.9
			c0.3-0.3,0.6-0.6,0.8-0.9H452c-0.2,0.6-0.4,1.2-0.7,1.8H428.5z M430.6,965.8c0.5-0.6,1-1.2,1.4-1.9h20.8c-0.2,0.6-0.4,1.3-0.6,1.9
			H430.6z M432.1,963.6c0.4-0.6,0.7-1.2,1-1.8h20.1c-0.1,0.6-0.3,1.2-0.4,1.8H432.1z M433.3,961.5c0.1-0.2,0.2-0.4,0.3-0.6
			c0.2-0.4,0.3-0.8,0.5-1.2h19.7c-0.1,0.6-0.2,1.2-0.3,1.8H433.3z M452.8,943.4c0.1,0.3,0.2,0.7,0.3,1h-20.3
			c-0.3-0.6-0.7-1.2-1.1-1.7h20.9C452.7,942.9,452.7,943.1,452.8,943.4z M431.5,942.4c-0.5-0.6-0.9-1.2-1.5-1.8h21.9
			c0.2,0.6,0.4,1.2,0.6,1.8H431.5z M429.7,940.2c-0.1-0.1-0.2-0.2-0.2-0.3c-0.6-0.6-1.2-1.1-1.9-1.6H451c0.3,0.6,0.5,1.2,0.7,1.9
			H429.7z M427.2,938.1c-0.9-0.7-1.9-1.3-3-1.8H450c0.3,0.6,0.6,1.2,0.8,1.8H427.2z M381.1,972.1v-1.8h20.8v1.8H381.1z M420.2,972.1
			c1.1-0.2,2.2-0.6,3.2-1c0.6-0.2,1.1-0.5,1.6-0.8h25.2c-0.3,0.6-0.6,1.2-0.9,1.8H420.2z"/>
		<path class="st4" d="M559.6,914.4v73.4c-0.4,2.1-1,4.2-1.8,6.2c-1.5,3.5-3.5,6.5-6.1,9.1c-2.6,2.6-5.6,4.6-9.1,6.1
			c-2.6,1.1-5.2,1.8-8.1,2.1h25.2h7.5v-96.9H559.6z"/>
		<polygon class="st4" points="380.9,1010.5 380.9,1010.8 400.7,1010.8 400.7,1010.8 400.7,1010.5 		"/>
	</g>
	<polyline class="st5" points="1092.7,984.7 1092.7,1022.6 321.3,1022.6 321.3,984.7 	"/>
	<polyline class="st5" points="832.7,942.2 832.7,904.6 1092.7,904.6 1092.7,942.2 	"/>
	<polyline class="st5" points="322.9,436.2 322.9,398.3 1094.4,398.3 1094.4,436.2 	"/>
	<polyline class="st5" points="582.9,478.7 582.9,516.3 322.9,516.3 322.9,478.7 	"/>
</g>
</svg>
